<?xml version="1.0" standalone="no"?>
<!DOCTYPE svg PUBLIC "-//W3C//DTD SVG 20010904//EN"
 "http://www.w3.org/TR/2001/REC-SVG-20010904/DTD/svg10.dtd">
<svg version="1.0" xmlns="http://www.w3.org/2000/svg"
 width="1500.000000pt" height="1500.000000pt" viewBox="0 0 1500.000000 1500.000000"
 preserveAspectRatio="xMidYMid meet">
<metadata>
Created by potrace 1.14, written by Peter Selinger 2001-2017
</metadata>
<g transform="translate(0.000000,1500.000000) scale(0.100000,-0.100000)"
fill="#000000" stroke="none">
<path d="M7198 14995 c-2 -1 -68 -6 -148 -10 -181 -8 -214 -11 -370 -29 -19
-3 -62 -7 -95 -10 -33 -4 -71 -9 -85 -11 -14 -2 -45 -7 -70 -10 -25 -3 -56 -8
-70 -10 -58 -12 -76 -15 -115 -21 -58 -8 -229 -41 -310 -59 -38 -9 -92 -20
-119 -25 -27 -6 -119 -28 -205 -50 -373 -96 -795 -244 -1181 -415 -103 -46
-461 -223 -530 -262 -294 -167 -635 -386 -840 -538 -96 -72 -388 -302 -400
-315 -3 -4 -45 -42 -95 -85 -152 -134 -174 -154 -365 -345 -192 -193 -321
-331 -423 -453 -33 -40 -69 -83 -81 -97 -135 -157 -413 -543 -548 -760 -130
-210 -285 -486 -365 -650 -87 -179 -223 -481 -223 -494 0 -3 -9 -25 -20 -49
-10 -23 -26 -60 -34 -82 -28 -77 -73 -200 -79 -215 -29 -73 -154 -476 -172
-553 -2 -12 -18 -76 -35 -142 -33 -127 -39 -154 -64 -280 -9 -44 -18 -91 -21
-105 -3 -14 -8 -38 -10 -55 -3 -16 -12 -66 -20 -110 -16 -93 -41 -264 -51
-350 -3 -33 -8 -73 -10 -90 -2 -16 -6 -61 -10 -100 -3 -38 -7 -83 -9 -100 -31
-264 -26 -1033 10 -1340 2 -22 7 -67 10 -100 3 -33 10 -91 16 -130 5 -38 11
-83 13 -100 4 -32 37 -243 41 -260 1 -5 5 -28 9 -50 9 -49 36 -184 41 -205 2
-8 11 -49 20 -90 8 -41 32 -136 51 -210 19 -74 37 -139 38 -145 25 -106 168
-543 206 -630 4 -11 30 -74 56 -140 139 -353 340 -757 547 -1100 131 -216 485
-723 554 -793 6 -7 29 -34 50 -60 33 -41 131 -157 158 -188 6 -6 37 -42 70
-80 66 -76 425 -438 520 -525 54 -49 183 -162 247 -215 20 -17 132 -107 261
-211 10 -8 42 -31 70 -51 29 -20 81 -59 117 -86 79 -59 402 -273 520 -343 93
-56 137 -81 220 -126 30 -16 82 -44 115 -62 457 -248 993 -461 1539 -610 172
-47 481 -118 611 -140 22 -4 51 -9 65 -11 14 -3 48 -9 75 -14 28 -5 91 -14
140 -21 50 -6 98 -13 107 -15 9 -1 48 -6 85 -9 37 -4 79 -8 93 -11 14 -2 60
-6 103 -10 43 -3 88 -7 100 -10 96 -18 815 -26 1042 -11 118 8 141 9 280 21
69 6 217 23 265 31 14 2 45 7 70 10 25 3 56 8 70 10 14 2 57 9 95 15 90 14
109 17 175 30 30 6 66 13 80 16 397 72 1033 268 1425 439 446 194 665 308
1048 541 141 85 481 321 623 431 268 209 473 391 725 642 377 378 660 723 957
1167 81 122 182 282 182 290 0 2 15 27 34 56 149 234 388 732 534 1113 84 219
222 647 247 765 2 8 17 74 34 145 39 160 42 174 48 205 2 14 9 45 14 70 11 48
13 57 29 148 16 94 20 116 24 137 5 26 17 110 22 154 2 19 5 48 8 65 15 99 21
149 31 266 4 36 8 85 10 110 20 221 27 836 12 1055 -4 61 -10 137 -12 170 -2
33 -7 80 -10 105 -2 25 -7 70 -10 100 -7 69 -34 286 -40 320 -3 14 -7 36 -10
50 -2 14 -9 54 -15 90 -15 98 -19 121 -30 170 -5 25 -12 56 -14 70 -91 476
-302 1120 -534 1620 -38 83 -145 300 -162 330 -5 8 -39 71 -76 140 -187 346
-484 789 -733 1095 -36 44 -68 82 -71 85 -3 3 -29 34 -58 69 -164 199 -557
599 -768 781 -67 58 -183 156 -200 170 -167 133 -267 209 -354 271 -697 500
-1410 852 -2248 1110 -159 49 -480 129 -622 155 -14 3 -70 14 -125 24 -111 22
-137 26 -204 36 -25 4 -55 8 -65 10 -20 4 -148 21 -221 30 -22 2 -56 7 -75 9
-47 7 -107 13 -215 20 -49 4 -106 9 -125 11 -38 5 -787 14 -792 9z"/>
</g>
</svg>
